<svg width="50" height="50" viewBox="0 0 50 50" fill="none" xmlns="http://www.w3.org/2000/svg">
<path d="M20.7723 3.125H10.0223C9.81866 3.125 9.62336 3.2059 9.47936 3.3499C9.33535 3.4939 9.25446 3.68921 9.25446 3.89286V5.42857C9.25446 6.03952 9.49715 6.62544 9.92916 7.05744C10.3612 7.48945 10.9471 7.73214 11.558 7.73214H19.2366C19.8475 7.73214 20.4335 7.48945 20.8655 7.05744C21.2975 6.62544 21.5402 6.03952 21.5402 5.42857V3.89286C21.5402 3.68921 21.4593 3.4939 21.3153 3.3499C21.1713 3.2059 20.976 3.125 20.7723 3.125Z" fill="#4795EA"/>
<path d="M24.6116 3.125H6.18304C4.06266 3.125 2.34375 4.84391 2.34375 6.96429V42.2857C2.34375 44.4061 4.06266 46.125 6.18304 46.125H24.6116C26.732 46.125 28.4509 44.4061 28.4509 42.2857V6.96429C28.4509 4.84391 26.732 3.125 24.6116 3.125Z" fill="#4795EA"/>
<path d="M3.87946 39.9821V42.2857C3.87946 42.8966 4.12215 43.4826 4.55416 43.9146C4.98616 44.3466 5.57208 44.5893 6.18303 44.5893H24.6116C25.2225 44.5893 25.8085 44.3466 26.2405 43.9146C26.6725 43.4826 26.9152 42.8966 26.9152 42.2857V39.9821H3.87946ZM16.1652 43.0535H14.6295C14.4258 43.0535 14.2305 42.9726 14.0865 42.8286C13.9425 42.6846 13.8616 42.4893 13.8616 42.2857C13.8616 42.082 13.9425 41.8867 14.0865 41.7427C14.2305 41.5987 14.4258 41.5178 14.6295 41.5178H16.1652C16.3688 41.5178 16.5641 41.5987 16.7081 41.7427C16.8521 41.8867 16.933 42.082 16.933 42.2857C16.933 42.4893 16.8521 42.6846 16.7081 42.8286C16.5641 42.9726 16.3688 43.0535 16.1652 43.0535Z" fill="url(#paint0_linear)"/>
<path d="M16.1652 23.8571C16.1652 26.7082 17.2978 29.4425 19.3138 31.4585C21.3298 33.4745 24.0641 34.6071 26.9152 34.6071V38.4464H3.87946V6.96428C3.87946 6.35333 4.12215 5.76741 4.55416 5.33541C4.98616 4.9034 5.57208 4.66071 6.18303 4.66071H9.25446V5.42856C9.25446 6.03951 9.49715 6.62543 9.92916 7.05743C10.3612 7.48944 10.9471 7.73213 11.558 7.73213H19.2366C19.8475 7.73213 20.4335 7.48944 20.8655 7.05743C21.2975 6.62543 21.5402 6.03951 21.5402 5.42856V4.66071H24.6116C25.2225 4.66071 25.8085 4.9034 26.2405 5.33541C26.6725 5.76741 26.9152 6.35333 26.9152 6.96428V13.1071C24.0641 13.1071 21.3298 14.2397 19.3138 16.2557C17.2978 18.2718 16.1652 21.0061 16.1652 23.8571Z" fill="url(#paint1_linear)"/>
<path d="M27.683 39.2143C27.683 39.4179 27.6021 39.6132 27.4581 39.7572C27.3141 39.9012 27.1188 39.9821 26.9152 39.9821H3.87946C3.67581 39.9821 3.4805 39.9012 3.3365 39.7572C3.1925 39.6132 3.1116 39.4179 3.1116 39.2143C3.1116 39.0106 3.1925 38.8153 3.3365 38.6713C3.4805 38.5273 3.67581 38.4464 3.87946 38.4464H26.9152C27.1188 38.4464 27.3141 38.5273 27.4581 38.6713C27.6021 38.8153 27.683 39.0106 27.683 39.2143Z" fill="#4795EA"/>
<path d="M46.8795 20.7857C46.8869 20.7168 46.8869 20.6473 46.8795 20.5783C46.8752 20.5529 46.8752 20.527 46.8795 20.5016C46.8483 20.4383 46.8097 20.379 46.7643 20.325V20.2789L45.1364 18.7432C44.9878 18.6037 44.7898 18.5289 44.586 18.5354C44.3823 18.5419 44.1894 18.6291 44.0499 18.7777C43.9104 18.9264 43.8357 19.1244 43.8422 19.3281C43.8487 19.5319 43.9358 19.7247 44.0845 19.8642L44.3072 20.0716H39.2009C38.9973 20.0716 38.8019 20.1525 38.6579 20.2965C38.5139 20.4405 38.433 20.6358 38.433 20.8394C38.433 21.0431 38.5139 21.2384 38.6579 21.3824C38.8019 21.5264 38.9973 21.6073 39.2009 21.6073H44.1843L43.9616 21.8146C43.813 21.9541 43.7258 22.1469 43.7193 22.3507C43.7128 22.5545 43.7876 22.7525 43.9271 22.9011C44.0666 23.0498 44.2594 23.1369 44.4632 23.1434C44.6669 23.1499 44.8649 23.0752 45.0136 22.9357L46.6414 21.4C46.6959 21.3453 46.7424 21.2832 46.7796 21.2157V21.1696C46.8084 21.0905 46.8265 21.0078 46.8334 20.9239L46.8795 20.7857Z" fill="#FE9661"/>
<path d="M28.4509 13.2146C27.9421 13.1436 27.429 13.1077 26.9152 13.1071C24.0641 13.1071 21.3298 14.2397 19.3138 16.2557C17.2978 18.2717 16.1652 21.006 16.1652 23.8571C16.1652 26.7082 17.2978 29.4425 19.3138 31.4585C21.3298 33.4745 24.0641 34.6071 26.9152 34.6071C27.429 34.6065 27.9421 34.5706 28.4509 34.4996C31.0134 34.1345 33.3581 32.8571 35.0543 30.902C36.7505 28.9469 37.6844 26.4455 37.6844 23.8571C37.6844 21.2688 36.7505 18.7673 35.0543 16.8122C33.3581 14.8572 31.0134 13.5797 28.4509 13.2146ZM28.4509 32.9409C26.5891 33.2556 24.6755 32.9907 22.9692 32.182C21.2629 31.3734 19.8462 30.0601 18.9108 28.4198C17.9755 26.7795 17.5666 24.8914 17.7397 23.0111C17.9127 21.1308 18.6592 19.3491 19.8782 17.907C21.0972 16.465 22.7298 15.4322 24.555 14.9486C26.3803 14.4649 28.31 14.5537 30.0832 15.2029C31.8563 15.8521 33.3872 17.0304 34.4686 18.5782C35.55 20.1261 36.1298 21.9689 36.1295 23.8571C36.1291 26.0344 35.3577 28.1411 33.9522 29.8039C32.5466 31.4667 30.5977 32.578 28.4509 32.9409Z" fill="#FE9661"/>
<path d="M36.1295 23.8572C36.1298 25.7454 35.55 27.5882 34.4686 29.136C33.3872 30.6839 31.8563 31.8622 30.0832 32.5114C28.31 33.1606 26.3803 33.2494 24.555 32.7657C22.7298 32.2821 21.0972 31.2493 19.8782 29.8073C18.6592 28.3652 17.9127 26.5835 17.7397 24.7032C17.5666 22.8229 17.9755 20.9348 18.9108 19.2945C19.8462 17.6542 21.2629 16.3409 22.9692 15.5322C24.6755 14.7236 26.5891 14.4587 28.4509 14.7734C30.5977 15.1363 32.5466 16.2476 33.9522 17.9104C35.3577 19.5732 36.1291 21.6799 36.1295 23.8572Z" fill="url(#paint2_linear)"/>
<path d="M27.5371 23.0893H26.3163C26.1126 23.0893 25.9173 23.0084 25.7733 22.8644C25.6293 22.7204 25.5484 22.5251 25.5484 22.3214C25.5484 22.1178 25.6293 21.9225 25.7733 21.7785C25.9173 21.6345 26.1126 21.5536 26.3163 21.5536H29.2188C29.4224 21.5536 29.6177 21.4727 29.7617 21.3287C29.9057 21.1847 29.9866 20.9894 29.9866 20.7857C29.9866 20.5821 29.9057 20.3868 29.7617 20.2428C29.6177 20.0988 29.4224 20.0179 29.2188 20.0179H27.683V18.4822C27.683 18.2785 27.6021 18.0832 27.4581 17.9392C27.3141 17.7952 27.1188 17.7143 26.9152 17.7143C26.7115 17.7143 26.5162 17.7952 26.3722 17.9392C26.2282 18.0832 26.1473 18.2785 26.1473 18.4822V20.0179C25.5364 20.0403 24.9594 20.3044 24.5432 20.7523C24.127 21.2001 23.9058 21.795 23.9282 22.4059C23.9506 23.0168 24.2148 23.5939 24.6626 24.01C25.1105 24.4262 25.7053 24.6474 26.3163 24.625H27.5371C27.7408 24.625 27.9361 24.7059 28.0801 24.8499C28.2241 24.9939 28.305 25.1892 28.305 25.3929C28.305 25.5965 28.2241 25.7918 28.0801 25.9358C27.9361 26.0798 27.7408 26.1607 27.5371 26.1607H24.6116C24.408 26.1607 24.2127 26.2416 24.0686 26.3856C23.9246 26.5296 23.8438 26.7249 23.8438 26.9286C23.8438 27.1322 23.9246 27.3275 24.0686 27.4715C24.2127 27.6155 24.408 27.6964 24.6116 27.6964H26.1473V29.2322C26.1473 29.4358 26.2282 29.6311 26.3722 29.7751C26.5162 29.9191 26.7115 30 26.9152 30C27.1188 30 27.3141 29.9191 27.4581 29.7751C27.6021 29.6311 27.683 29.4358 27.683 29.2322V27.6964C28.294 27.6771 28.8722 27.4158 29.2905 26.9702C29.7089 26.5245 29.933 25.9309 29.9137 25.3199C29.8943 24.709 29.6331 24.1307 29.1874 23.7124C28.7417 23.2941 28.1481 23.0699 27.5371 23.0893Z" fill="url(#paint3_linear)"/>
<defs>
<linearGradient id="paint0_linear" x1="3.87946" y1="42.2857" x2="26.9152" y2="42.2857" gradientUnits="userSpaceOnUse">
<stop stop-color="#54A5FF"/>
<stop offset="1" stop-color="#8AD3FE"/>
</linearGradient>
<linearGradient id="paint1_linear" x1="15.1977" y1="35.0525" x2="15.5816" y2="11.3795" gradientUnits="userSpaceOnUse">
<stop stop-color="#D3E6F5"/>
<stop offset="1" stop-color="#F0F7FC"/>
</linearGradient>
<linearGradient id="paint2_linear" x1="26.9152" y1="33.0715" x2="26.9152" y2="14.6429" gradientUnits="userSpaceOnUse">
<stop stop-color="#FE9661"/>
<stop offset="1" stop-color="#FFB369"/>
</linearGradient>
<linearGradient id="paint3_linear" x1="214.272" y1="398.571" x2="263.415" y2="398.571" gradientUnits="userSpaceOnUse">
<stop stop-color="#D3E6F5"/>
<stop offset="1" stop-color="#F0F7FC"/>
</linearGradient>
</defs>
</svg>
