<svg width="43" height="43" viewBox="0 0 43 43" fill="none" xmlns="http://www.w3.org/2000/svg">
<path d="M14.1094 32.25H10.0781C7.48469 32.25 5.375 29.9522 5.375 27.1236V25.7799L5.56984 25.9814C5.6323 26.0444 5.70661 26.0944 5.78849 26.1285C5.87036 26.1626 5.95818 26.1802 6.04688 26.1802C6.13557 26.1802 6.22339 26.1626 6.30526 26.1285C6.38714 26.0944 6.46145 26.0444 6.52391 25.9814C6.58688 25.919 6.63686 25.8446 6.67097 25.7628C6.70508 25.6809 6.72265 25.5931 6.72265 25.5044C6.72265 25.4157 6.70508 25.3279 6.67097 25.246C6.63686 25.1641 6.58688 25.0898 6.52391 25.0274L5.18016 23.6836C5.1177 23.6206 5.04339 23.5706 4.96151 23.5365C4.87964 23.5024 4.79182 23.4849 4.70312 23.4849C4.61443 23.4849 4.52661 23.5024 4.44474 23.5365C4.36286 23.5706 4.28855 23.6206 4.22609 23.6836L2.88234 25.0274C2.81937 25.0898 2.76939 25.1641 2.73528 25.246C2.70117 25.3279 2.6836 25.4157 2.6836 25.5044C2.6836 25.5931 2.70117 25.6809 2.73528 25.7628C2.76939 25.8446 2.81937 25.919 2.88234 25.9814C2.9448 26.0444 3.01911 26.0944 3.10099 26.1285C3.18286 26.1626 3.27068 26.1802 3.35938 26.1802C3.44807 26.1802 3.53589 26.1626 3.61776 26.1285C3.69964 26.0944 3.77395 26.0444 3.83641 25.9814L4.03125 25.7799V27.1236C4.03125 30.6913 6.71875 33.5938 10.0781 33.5938H14.1094C14.2876 33.5938 14.4585 33.523 14.5845 33.397C14.7105 33.271 14.7812 33.1001 14.7812 32.9219C14.7812 32.7437 14.7105 32.5728 14.5845 32.4468C14.4585 32.3208 14.2876 32.25 14.1094 32.25Z" fill="url(#paint0_linear)"/>
<path d="M32.727 19.0073C32.6646 18.9444 32.5903 18.8944 32.5084 18.8603C32.4265 18.8262 32.3387 18.8086 32.25 18.8086C32.1613 18.8086 32.0735 18.8262 31.9916 18.8603C31.9097 18.8944 31.8354 18.9444 31.773 19.0073L31.5781 19.2089V17.8652C31.5781 14.3244 28.8906 11.4219 25.5312 11.4219H21.5C21.3218 11.4219 21.1509 11.4927 21.0249 11.6187C20.8989 11.7447 20.8281 11.9156 20.8281 12.0938C20.8281 12.2719 20.8989 12.4428 21.0249 12.5688C21.1509 12.6948 21.3218 12.7656 21.5 12.7656H25.5312C28.1247 12.7656 30.2344 15.0634 30.2344 17.892V19.2358L30.0395 19.0342C29.913 18.9077 29.7414 18.8366 29.5625 18.8366C29.3836 18.8366 29.212 18.9077 29.0855 19.0342C28.959 19.1607 28.8879 19.3323 28.8879 19.5113C28.8879 19.6902 28.959 19.8618 29.0855 19.9883L30.4292 21.332C30.4917 21.395 30.566 21.445 30.6479 21.4791C30.7297 21.5132 30.8176 21.5308 30.9062 21.5308C30.9949 21.5308 31.0828 21.5132 31.1646 21.4791C31.2465 21.445 31.3208 21.395 31.3833 21.332L32.727 19.9883C32.7942 19.9254 32.8477 19.8495 32.8843 19.7651C32.9208 19.6807 32.9397 19.5898 32.9397 19.4978C32.9397 19.4059 32.9208 19.3149 32.8843 19.2305C32.8477 19.1461 32.7942 19.0702 32.727 19.0073Z" fill="url(#paint1_linear)"/>
<path d="M19.4844 2.01562H4.70312C3.21886 2.01562 2.01562 3.21886 2.01562 4.70312V19.4844C2.01562 20.9686 3.21886 22.1719 4.70312 22.1719H19.4844C20.9686 22.1719 22.1719 20.9686 22.1719 19.4844V4.70312C22.1719 3.21886 20.9686 2.01562 19.4844 2.01562Z" fill="url(#paint2_linear)"/>
<path d="M38.2969 24.8594H16.7969C15.3126 24.8594 14.1094 26.0626 14.1094 27.5469V38.2969C14.1094 39.7811 15.3126 40.9844 16.7969 40.9844H38.2969C39.7811 40.9844 40.9844 39.7811 40.9844 38.2969V27.5469C40.9844 26.0626 39.7811 24.8594 38.2969 24.8594Z" fill="url(#paint3_linear)"/>
<path d="M27.5469 36.2812C29.4022 36.2812 30.9062 34.7772 30.9062 32.9219C30.9062 31.0665 29.4022 29.5625 27.5469 29.5625C25.6915 29.5625 24.1875 31.0665 24.1875 32.9219C24.1875 34.7772 25.6915 36.2812 27.5469 36.2812Z" fill="#54A5FF"/>
<path d="M35.6094 34.9375C36.7226 34.9375 37.625 34.0351 37.625 32.9219C37.625 31.8087 36.7226 30.9062 35.6094 30.9062C34.4962 30.9062 33.5938 31.8087 33.5938 32.9219C33.5938 34.0351 34.4962 34.9375 35.6094 34.9375Z" fill="#54A5FF"/>
<path d="M19.4844 34.9375C20.5976 34.9375 21.5 34.0351 21.5 32.9219C21.5 31.8087 20.5976 30.9062 19.4844 30.9062C18.3712 30.9062 17.4688 31.8087 17.4688 32.9219C17.4688 34.0351 18.3712 34.9375 19.4844 34.9375Z" fill="#54A5FF"/>
<path d="M14.1094 2.01562H10.0781C9.70706 2.01562 9.40625 2.31643 9.40625 2.6875V8.0625C9.40625 8.43357 9.70706 8.73438 10.0781 8.73438H14.1094C14.4804 8.73438 14.7812 8.43357 14.7812 8.0625V2.6875C14.7812 2.31643 14.4804 2.01562 14.1094 2.01562Z" fill="#54A5FF"/>
<path d="M8.0625 16.7969H5.375C5.19681 16.7969 5.02591 16.7261 4.89991 16.6001C4.77391 16.4741 4.70312 16.3032 4.70312 16.125C4.70312 15.9468 4.77391 15.7759 4.89991 15.6499C5.02591 15.5239 5.19681 15.4531 5.375 15.4531H8.0625C8.24069 15.4531 8.41159 15.5239 8.53759 15.6499C8.66359 15.7759 8.73438 15.9468 8.73438 16.125C8.73438 16.3032 8.66359 16.4741 8.53759 16.6001C8.41159 16.7261 8.24069 16.7969 8.0625 16.7969Z" fill="#D7E9F7"/>
<path d="M8.0625 19.4844H5.375C5.19681 19.4844 5.02591 19.4136 4.89991 19.2876C4.77391 19.1616 4.70312 18.9907 4.70312 18.8125C4.70312 18.6343 4.77391 18.4634 4.89991 18.3374C5.02591 18.2114 5.19681 18.1406 5.375 18.1406H8.0625C8.24069 18.1406 8.41159 18.2114 8.53759 18.3374C8.66359 18.4634 8.73438 18.6343 8.73438 18.8125C8.73438 18.9907 8.66359 19.1616 8.53759 19.2876C8.41159 19.4136 8.24069 19.4844 8.0625 19.4844Z" fill="#D7E9F7"/>
<defs>
<linearGradient id="paint0_linear" x1="2.6875" y1="28.5547" x2="14.7813" y2="28.5547" gradientUnits="userSpaceOnUse">
<stop stop-color="#FE9661"/>
<stop offset="1" stop-color="#FFB369"/>
</linearGradient>
<linearGradient id="paint1_linear" x1="396.287" y1="259.09" x2="614.296" y2="259.09" gradientUnits="userSpaceOnUse">
<stop stop-color="#FE9661"/>
<stop offset="1" stop-color="#FFB369"/>
</linearGradient>
<linearGradient id="paint2_linear" x1="12.0938" y1="22.1719" x2="12.0938" y2="2.01562" gradientUnits="userSpaceOnUse">
<stop stop-color="#54A5FF"/>
<stop offset="1" stop-color="#8AD3FE"/>
</linearGradient>
<linearGradient id="paint3_linear" x1="1115.98" y1="1008.48" x2="1115.98" y2="621.484" gradientUnits="userSpaceOnUse">
<stop stop-color="#54A5FF"/>
<stop offset="1" stop-color="#8AD3FE"/>
</linearGradient>
</defs>
</svg>
