<svg width="43" height="43" viewBox="0 0 43 43" fill="none" xmlns="http://www.w3.org/2000/svg">
<path d="M4.70312 21.5H4.03125C3.59009 21.5 3.15325 21.5869 2.74567 21.7557C2.33809 21.9245 1.96776 22.172 1.65581 22.4839C1.02581 23.1139 0.671875 23.9684 0.671875 24.8594C0.671875 25.0376 0.742662 25.2085 0.868663 25.3345C0.994664 25.4605 1.16556 25.5312 1.34375 25.5312C1.52194 25.5312 1.69284 25.4605 1.81884 25.3345C1.94484 25.2085 2.01562 25.0376 2.01562 24.8594C2.01562 24.3248 2.22798 23.8121 2.60599 23.4341C2.98399 23.0561 3.49667 22.8438 4.03125 22.8438H4.70312C4.88132 22.8438 5.05221 22.773 5.17821 22.647C5.30421 22.521 5.375 22.3501 5.375 22.1719C5.375 21.9937 5.30421 21.8228 5.17821 21.6968C5.05221 21.5708 4.88132 21.5 4.70312 21.5Z" fill="url(#paint0_linear)"/>
<path d="M34.9375 6.04688C33.6902 6.04688 32.4939 6.54238 31.6119 7.42439C30.7299 8.3064 30.2344 9.50265 30.2344 10.75V13.4375C30.2344 13.6157 30.3052 13.7866 30.4312 13.9126C30.5572 14.0386 30.7281 14.1094 30.9062 14.1094H34.9375C35.1157 14.1094 35.2866 14.0386 35.4126 13.9126C35.5386 13.7866 35.6094 13.6157 35.6094 13.4375V6.71875C35.6094 6.54056 35.5386 6.36966 35.4126 6.24366C35.2866 6.11766 35.1157 6.04688 34.9375 6.04688Z" fill="#4795EA"/>
<path d="M30.9062 34.2656H26.2031C26.0249 34.2656 25.854 34.3364 25.728 34.4624C25.602 34.5884 25.5312 34.7593 25.5312 34.9375V37.9609C25.5312 38.7628 25.8498 39.5318 26.4168 40.0988C26.9838 40.6658 27.7528 40.9844 28.5547 40.9844C29.3566 40.9844 30.1256 40.6658 30.6926 40.0988C31.2596 39.5318 31.5781 38.7628 31.5781 37.9609V34.9375C31.5781 34.7593 31.5073 34.5884 31.3813 34.4624C31.2553 34.3364 31.0844 34.2656 30.9062 34.2656Z" fill="#4795EA"/>
<path d="M16.125 34.2656H11.4219C11.2437 34.2656 11.0728 34.3364 10.9468 34.4624C10.8208 34.5884 10.75 34.7593 10.75 34.9375V37.9609C10.75 38.7628 11.0685 39.5318 11.6355 40.0988C12.2025 40.6658 12.9716 40.9844 13.7734 40.9844C14.5753 40.9844 15.3443 40.6658 15.9113 40.0988C16.4783 39.5318 16.7969 38.7628 16.7969 37.9609V34.9375C16.7969 34.7593 16.7261 34.5884 16.6001 34.4624C16.4741 34.3364 16.3032 34.2656 16.125 34.2656Z" fill="#4795EA"/>
<path d="M40.3125 20.1562H40.205C39.8623 20.1502 39.5325 20.0247 39.2725 19.8015C39.0124 19.5783 38.8385 19.2712 38.7806 18.9334C38.3361 16.8153 37.1783 14.9139 35.5005 13.5468C33.8228 12.1796 31.7267 11.4296 29.5625 11.4219H15.1575C12.2066 11.4219 9.37663 12.5941 7.29005 14.6807C5.20348 16.7673 4.03125 19.5973 4.03125 22.5481V24.4831C4.03481 27.4329 5.20817 30.2608 7.29398 32.3466C9.37979 34.4324 12.2077 35.6058 15.1575 35.6094H29.5625C31.7267 35.6017 33.8228 34.8516 35.5005 33.4845C37.1783 32.1173 38.3361 30.2159 38.7806 28.0978C38.8385 27.76 39.0124 27.453 39.2725 27.2297C39.5325 27.0065 39.8623 26.881 40.205 26.875H40.3125C40.8471 26.875 41.3598 26.6626 41.7378 26.2846C42.1158 25.9066 42.3281 25.394 42.3281 24.8594V22.1719C42.3281 21.6373 42.1158 21.1246 41.7378 20.7466C41.3598 20.3686 40.8471 20.1562 40.3125 20.1562Z" fill="url(#paint1_linear)"/>
<path d="M27.8089 7.78034C27.7498 7.34252 27.644 6.9123 27.4931 6.49705C27.0278 5.19085 26.1697 4.06063 25.0365 3.26143C23.9034 2.46223 22.5507 2.0332 21.1641 2.0332C19.7775 2.0332 18.4248 2.46223 17.2916 3.26143C16.1585 4.06063 15.3004 5.19085 14.835 6.49705C14.6803 6.93232 14.5722 7.38275 14.5125 7.8408V8.00205C14.4498 8.49951 14.4498 9.00287 14.5125 9.50034C14.5909 10.2418 14.7954 10.9644 15.1172 11.6369C15.6629 12.7838 16.5225 13.7525 17.5963 14.4308C18.6701 15.109 19.9142 15.469 21.1842 15.469C22.4543 15.469 23.6984 15.109 24.7722 14.4308C25.846 13.7525 26.7056 12.7838 27.2513 11.6369C27.5721 10.9664 27.7766 10.2461 27.856 9.50705C27.8832 9.25046 27.8922 8.99226 27.8828 8.7344C27.8843 8.41489 27.8595 8.09581 27.8089 7.78034ZM26.5055 9.33237C26.358 10.6458 25.7317 11.8587 24.7464 12.7396C23.761 13.6204 22.4857 14.1074 21.1641 14.1074C19.8424 14.1074 18.5671 13.6204 17.5818 12.7396C16.5965 11.8587 15.9702 10.6458 15.8227 9.33237C15.8008 9.13379 15.7896 8.93418 15.7891 8.7344C15.7882 8.53437 15.8017 8.33453 15.8294 8.13643C15.8327 8.10292 15.8327 8.06916 15.8294 8.03565C15.8294 8.03565 15.8294 7.96174 15.8294 7.95502C16.0089 6.77212 16.5779 5.68292 17.4464 4.85995C18.3148 4.03697 19.433 3.52727 20.6238 3.41158C21.8147 3.29589 23.0101 3.58083 24.0207 4.22125C25.0313 4.86168 25.7993 5.82098 26.2031 6.94721C26.3229 7.28219 26.4062 7.62908 26.4517 7.9819C26.5028 8.22969 26.5321 8.48149 26.5391 8.7344C26.5381 8.93416 26.5269 9.13375 26.5055 9.33237Z" fill="url(#paint2_linear)"/>
<path d="M26.539 8.73442C26.5493 8.93362 26.5493 9.1332 26.539 9.33239C26.3915 10.6458 25.7653 11.8588 24.7799 12.7396C23.7946 13.6205 22.5193 14.1074 21.1976 14.1074C19.876 14.1074 18.6007 13.6205 17.6153 12.7396C16.63 11.8588 16.0038 10.6458 15.8562 9.33239C15.8231 9.13442 15.8007 8.93481 15.789 8.73442C15.7882 8.53439 15.8016 8.33456 15.8294 8.13646C15.8326 8.10294 15.8326 8.06919 15.8294 8.03567C15.8294 8.03567 15.8294 7.96177 15.8294 7.95505C16.0088 6.77215 16.5779 5.68295 17.4463 4.85997C18.3148 4.037 19.433 3.5273 20.6238 3.41161C21.8146 3.29592 23.01 3.58085 24.0206 4.22128C25.0312 4.8617 25.7993 5.821 26.2031 6.94724C26.3228 7.28222 26.4062 7.62911 26.4517 7.98192C26.5028 8.22972 26.532 8.48152 26.539 8.73442Z" fill="url(#paint3_linear)"/>
<path d="M28.1314 15.4531H14.8686C14.6904 15.4531 14.5195 15.3823 14.3935 15.2563C14.2675 15.1303 14.1967 14.9594 14.1967 14.7812C14.1967 14.6031 14.2675 14.4322 14.3935 14.3062C14.5195 14.1802 14.6904 14.1094 14.8686 14.1094H28.1314C28.3096 14.1094 28.4805 14.1802 28.6065 14.3062C28.7325 14.4322 28.8033 14.6031 28.8033 14.7812C28.8033 14.9594 28.7325 15.1303 28.6065 15.2563C28.4805 15.3823 28.3096 15.4531 28.1314 15.4531Z" fill="url(#paint4_linear)"/>
<path d="M21.5 8.0625H20.8281C20.739 8.0625 20.6536 8.02711 20.5906 7.96411C20.5276 7.90111 20.4922 7.81566 20.4922 7.72656C20.4922 7.63747 20.5276 7.55202 20.5906 7.48902C20.6536 7.42602 20.739 7.39062 20.8281 7.39062H22.5078C22.686 7.39062 22.8569 7.31984 22.9829 7.19384C23.1089 7.06784 23.1797 6.89694 23.1797 6.71875C23.1797 6.54056 23.1089 6.36966 22.9829 6.24366C22.8569 6.11766 22.686 6.04688 22.5078 6.04688H21.8359V5.375C21.8359 5.19681 21.7651 5.02591 21.6391 4.89991C21.5131 4.77391 21.3422 4.70312 21.164 4.70312C20.9859 4.70312 20.815 4.77391 20.689 4.89991C20.563 5.02591 20.4922 5.19681 20.4922 5.375V6.08047C20.084 6.16336 19.7211 6.39497 19.474 6.73035C19.227 7.06572 19.1134 7.48093 19.1552 7.89537C19.1971 8.30981 19.3915 8.69391 19.7006 8.9731C20.0097 9.2523 20.4116 9.40667 20.8281 9.40625H21.5C21.5891 9.40625 21.6745 9.44164 21.7375 9.50464C21.8005 9.56764 21.8359 9.65309 21.8359 9.74219C21.8359 9.83128 21.8005 9.91673 21.7375 9.97973C21.6745 10.0427 21.5891 10.0781 21.5 10.0781H19.8203C19.6421 10.0781 19.4712 10.1489 19.3452 10.2749C19.2192 10.4009 19.1484 10.5718 19.1484 10.75C19.1484 10.9282 19.2192 11.0991 19.3452 11.2251C19.4712 11.3511 19.6421 11.4219 19.8203 11.4219H20.4922V12.0938C20.4922 12.2719 20.563 12.4428 20.689 12.5688C20.815 12.6948 20.9859 12.7656 21.164 12.7656C21.3422 12.7656 21.5131 12.6948 21.6391 12.5688C21.7651 12.4428 21.8359 12.2719 21.8359 12.0938V11.4219C22.2814 11.3773 22.6909 11.1576 22.9744 10.8111C23.2579 10.4646 23.3922 10.0197 23.3476 9.57422C23.3031 9.12874 23.0834 8.7192 22.7369 8.4357C22.3904 8.15219 21.9455 8.01795 21.5 8.0625Z" fill="#F0F7FC"/>
<path d="M32.25 21.5C33.3632 21.5 34.2656 20.5976 34.2656 19.4844C34.2656 18.3712 33.3632 17.4688 32.25 17.4688C31.1368 17.4688 30.2344 18.3712 30.2344 19.4844C30.2344 20.5976 31.1368 21.5 32.25 21.5Z" fill="url(#paint5_linear)"/>
<defs>
<linearGradient id="paint0_linear" x1="0.671875" y1="23.5156" x2="5.375" y2="23.5156" gradientUnits="userSpaceOnUse">
<stop stop-color="#FE9661"/>
<stop offset="1" stop-color="#FFB369"/>
</linearGradient>
<linearGradient id="paint1_linear" x1="23.1797" y1="35.6094" x2="23.1797" y2="11.4219" gradientUnits="userSpaceOnUse">
<stop stop-color="#54A5FF"/>
<stop offset="1" stop-color="#8AD3FE"/>
</linearGradient>
<linearGradient id="paint2_linear" x1="342.338" y1="271.555" x2="532.32" y2="81.784" gradientUnits="userSpaceOnUse">
<stop stop-color="#FE9661"/>
<stop offset="1" stop-color="#FFB369"/>
</linearGradient>
<linearGradient id="paint3_linear" x1="354.657" y1="228.527" x2="354.657" y2="56.9913" gradientUnits="userSpaceOnUse">
<stop stop-color="#FE9661"/>
<stop offset="1" stop-color="#FFB369"/>
</linearGradient>
<linearGradient id="paint4_linear" x1="21.5" y1="15.4531" x2="21.5" y2="14.1094" gradientUnits="userSpaceOnUse">
<stop stop-color="#D3E6F5"/>
<stop offset="1" stop-color="#F0F7FC"/>
</linearGradient>
<linearGradient id="paint5_linear" x1="211.641" y1="134.375" x2="235.828" y2="134.375" gradientUnits="userSpaceOnUse">
<stop stop-color="#D3E6F5"/>
<stop offset="1" stop-color="#F0F7FC"/>
</linearGradient>
</defs>
</svg>
