<svg width="43" height="43" viewBox="0 0 43 43" fill="none" xmlns="http://www.w3.org/2000/svg">
<path d="M12.0938 35.6094H6.71875C6.54056 35.6094 6.36966 35.6802 6.24366 35.8062C6.11766 35.9322 6.04688 36.1031 6.04688 36.2812V38.9688C6.04688 39.5033 6.25923 40.016 6.63724 40.394C7.01524 40.772 7.52792 40.9844 8.0625 40.9844H10.75C11.2846 40.9844 11.7973 40.772 12.1753 40.394C12.5533 40.016 12.7656 39.5033 12.7656 38.9688V36.2812C12.7656 36.1031 12.6948 35.9322 12.5688 35.8062C12.4428 35.6802 12.2719 35.6094 12.0938 35.6094Z" fill="#0668CB"/>
<path d="M36.2812 35.6094H30.9062C30.7281 35.6094 30.5572 35.6802 30.4312 35.8062C30.3052 35.9322 30.2344 36.1031 30.2344 36.2812V38.9688C30.2344 39.5033 30.4467 40.016 30.8247 40.394C31.2027 40.772 31.7154 40.9844 32.25 40.9844H34.9375C35.4721 40.9844 35.9848 40.772 36.3628 40.394C36.7408 40.016 36.9531 39.5033 36.9531 38.9688V36.2812C36.9531 36.1031 36.8823 35.9322 36.7563 35.8062C36.6303 35.6802 36.4594 35.6094 36.2812 35.6094Z" fill="#0668CB"/>
<path d="M36.2812 2.01562H6.71875C4.12129 2.01562 2.01562 4.12129 2.01562 6.71875V32.25C2.01562 34.8475 4.12129 36.9531 6.71875 36.9531H36.2812C38.8787 36.9531 40.9844 34.8475 40.9844 32.25V6.71875C40.9844 4.12129 38.8787 2.01562 36.2812 2.01562Z" fill="#4795EA"/>
<path d="M35.5086 4.70312H7.49141C5.95148 4.70312 4.70312 5.95148 4.70312 7.49141V31.4773C4.70312 33.0173 5.95148 34.2656 7.49141 34.2656H35.5086C37.0485 34.2656 38.2969 33.0173 38.2969 31.4773V7.49141C38.2969 5.95148 37.0485 4.70312 35.5086 4.70312Z" fill="url(#paint0_linear)"/>
<path d="M23.6702 27.5469H19.3298C18.8357 27.5431 18.3573 27.721 17.9857 28.0468C17.6141 28.3726 17.3752 28.8235 17.3142 29.3139L16.7969 33.5131C16.7854 33.6069 16.7938 33.7021 16.8216 33.7924C16.8494 33.8827 16.8959 33.9661 16.9581 34.0372C17.0218 34.1097 17.1004 34.1677 17.1885 34.2071C17.2767 34.2465 17.3722 34.2665 17.4688 34.2656H25.5313C25.6266 34.2655 25.7209 34.2451 25.8078 34.2057C25.8947 34.1663 25.9722 34.1089 26.0352 34.0372C26.0974 33.9661 26.1439 33.8827 26.1717 33.7924C26.1995 33.7021 26.2079 33.6069 26.1964 33.5131L25.6723 29.3139C25.6117 28.8258 25.3746 28.3767 25.0059 28.0513C24.6371 27.7258 24.162 27.5464 23.6702 27.5469Z" fill="url(#paint1_linear)"/>
<path d="M13.592 27.5469H9.25172C8.75755 27.5431 8.27922 27.721 7.90761 28.0468C7.53601 28.3726 7.29703 28.8235 7.2361 29.3139L6.71875 33.5131C6.70727 33.6069 6.7157 33.7021 6.74349 33.7924C6.77127 33.8827 6.81779 33.9661 6.88 34.0372C6.94371 34.1097 7.0223 34.1677 7.11041 34.2071C7.19853 34.2465 7.2941 34.2665 7.39063 34.2656H15.4531C15.5485 34.2655 15.6428 34.2451 15.7297 34.2057C15.8166 34.1663 15.8941 34.1089 15.957 34.0372C16.0192 33.9661 16.0658 33.8827 16.0936 33.7924C16.1213 33.7021 16.1298 33.6069 16.1183 33.5131L15.5942 29.3139C15.5336 28.8258 15.2965 28.3767 14.9277 28.0513C14.559 27.7258 14.0839 27.5464 13.592 27.5469Z" fill="url(#paint2_linear)"/>
<path d="M35.7505 29.3139C35.6895 28.8235 35.4506 28.3726 35.079 28.0468C34.7074 27.721 34.229 27.5431 33.7348 27.5469H29.408C28.9138 27.5431 28.4355 27.721 28.0639 28.0468C27.6923 28.3726 27.4533 28.8235 27.3923 29.3139L26.875 33.5131C26.8635 33.6069 26.872 33.7021 26.8997 33.7924C26.9275 33.8827 26.974 33.9661 27.0363 34.0372C27.1 34.1097 27.1785 34.1677 27.2667 34.2071C27.3548 34.2465 27.4504 34.2665 27.5469 34.2656H35.6094C35.7048 34.2655 35.7991 34.2451 35.8859 34.2057C35.9728 34.1663 36.0503 34.1089 36.1133 34.0372C36.1755 33.9661 36.222 33.8827 36.2498 33.7924C36.2776 33.7021 36.286 33.6069 36.2745 33.5131L35.7505 29.3139Z" fill="url(#paint3_linear)"/>
<path d="M31.0473 22.5952C30.9864 22.1047 30.7474 21.6538 30.3758 21.328C30.0042 21.0023 29.5259 20.8244 29.0317 20.8281H24.7048C24.2107 20.8244 23.7323 21.0023 23.3607 21.328C22.9891 21.6538 22.7502 22.1047 22.6892 22.5952L22.1719 26.7944C22.1604 26.8882 22.1688 26.9833 22.1966 27.0736C22.2244 27.1639 22.2709 27.2473 22.3331 27.3184C22.3968 27.391 22.4754 27.4489 22.5635 27.4883C22.6517 27.5277 22.7472 27.5477 22.8438 27.5469H30.9063C31.0016 27.5468 31.0959 27.5263 31.1828 27.4869C31.2697 27.4475 31.3472 27.3901 31.4102 27.3184C31.4724 27.2473 31.5189 27.1639 31.5467 27.0736C31.5745 26.9833 31.5829 26.8882 31.5714 26.7944L31.0473 22.5952Z" fill="url(#paint4_linear)"/>
<path d="M18.2952 20.8281H13.9548C13.4607 20.8244 12.9823 21.0023 12.6107 21.328C12.2391 21.6538 12.0002 22.1047 11.9392 22.5952L11.4219 26.7944C11.4104 26.8882 11.4188 26.9833 11.4466 27.0736C11.4744 27.1639 11.5209 27.2473 11.5831 27.3184C11.6468 27.391 11.7254 27.4489 11.8135 27.4883C11.9017 27.5277 11.9972 27.5477 12.0938 27.5469H20.1563C20.2517 27.5468 20.3459 27.5263 20.4328 27.4869C20.5197 27.4475 20.5972 27.3901 20.6602 27.3184C20.7224 27.2473 20.7689 27.1639 20.7967 27.0736C20.8245 26.9833 20.8329 26.8882 20.8214 26.7944L20.2973 22.5952C20.2367 22.107 19.9996 21.658 19.6309 21.3325C19.2621 21.007 18.787 20.8276 18.2952 20.8281Z" fill="url(#paint5_linear)"/>
<path d="M25.6723 15.8764C25.6114 15.386 25.3724 14.9351 25.0008 14.6093C24.6292 14.2835 24.1509 14.1056 23.6567 14.1094H19.3298C18.8357 14.1056 18.3573 14.2835 17.9857 14.6093C17.6141 14.9351 17.3752 15.386 17.3142 15.8764L16.7969 20.0756C16.7854 20.1694 16.7938 20.2645 16.8216 20.3549C16.8494 20.4452 16.8959 20.5286 16.9581 20.5997C17.0218 20.6722 17.1004 20.7302 17.1885 20.7696C17.2767 20.809 17.3722 20.829 17.4688 20.8281H25.5313C25.6266 20.828 25.7209 20.8076 25.8078 20.7682C25.8947 20.7288 25.9722 20.6714 26.0352 20.5997C26.0974 20.5286 26.1439 20.4452 26.1717 20.3549C26.1995 20.2645 26.2079 20.1694 26.1964 20.0756L25.6723 15.8764Z" fill="url(#paint6_linear)"/>
<path d="M21.5 12.0938C21.3218 12.0938 21.1509 12.023 21.0249 11.897C20.8989 11.771 20.8281 11.6001 20.8281 11.4219V10.0781C20.8281 9.89993 20.8989 9.72904 21.0249 9.60304C21.1509 9.47704 21.3218 9.40625 21.5 9.40625C21.6782 9.40625 21.8491 9.47704 21.9751 9.60304C22.1011 9.72904 22.1719 9.89993 22.1719 10.0781V11.4219C22.1719 11.6001 22.1011 11.771 21.9751 11.897C21.8491 12.023 21.6782 12.0938 21.5 12.0938Z" fill="url(#paint7_linear)"/>
<path d="M25.5312 12.7656C25.4131 12.7661 25.2969 12.7354 25.1944 12.6766C25.0919 12.6178 25.0067 12.5331 24.9474 12.4308C24.8881 12.3286 24.8568 12.2126 24.8567 12.0944C24.8566 11.9762 24.8876 11.8601 24.9467 11.7578L25.6186 10.5955C25.7077 10.4404 25.8547 10.3271 26.0273 10.2805C26.2 10.2339 26.384 10.2578 26.5391 10.3469C26.6941 10.436 26.8074 10.583 26.854 10.7556C26.9006 10.9282 26.8767 11.1123 26.7876 11.2673L26.1158 12.4297C26.0566 12.5322 25.9713 12.6173 25.8687 12.6763C25.766 12.7353 25.6496 12.7661 25.5312 12.7656Z" fill="url(#paint8_linear)"/>
<path d="M17.4687 12.7656C17.3504 12.7661 17.2339 12.7353 17.1313 12.6763C17.0286 12.6173 16.9434 12.5322 16.8842 12.4297L16.2123 11.2673C16.1232 11.1123 16.0994 10.9282 16.146 10.7556C16.1926 10.583 16.3059 10.436 16.4609 10.3469C16.616 10.2578 16.8 10.2339 16.9727 10.2805C17.1453 10.3271 17.2923 10.4404 17.3814 10.5955L18.0533 11.7578C18.1124 11.8601 18.1434 11.9762 18.1433 12.0944C18.1432 12.2126 18.1119 12.3286 18.0526 12.4308C17.9933 12.5331 17.9081 12.6178 17.8056 12.6766C17.7031 12.7354 17.5869 12.7661 17.4687 12.7656Z" fill="url(#paint9_linear)"/>
<defs>
<linearGradient id="paint0_linear" x1="21.5" y1="34.2656" x2="21.5" y2="4.70312" gradientUnits="userSpaceOnUse">
<stop stop-color="#D3E6F5"/>
<stop offset="1" stop-color="#F0F7FC"/>
</linearGradient>
<linearGradient id="paint1_linear" x1="21.5" y1="34.2656" x2="21.5" y2="27.5469" gradientUnits="userSpaceOnUse">
<stop stop-color="#FE9661"/>
<stop offset="1" stop-color="#FFB369"/>
</linearGradient>
<linearGradient id="paint2_linear" x1="166.675" y1="27.5468" x2="166.675" y2="27.5468" gradientUnits="userSpaceOnUse">
<stop stop-color="#FE9661"/>
<stop offset="1" stop-color="#FFB369"/>
</linearGradient>
<linearGradient id="paint3_linear" x1="469.116" y1="27.5468" x2="469.116" y2="27.5468" gradientUnits="userSpaceOnUse">
<stop stop-color="#FE9661"/>
<stop offset="1" stop-color="#FFB369"/>
</linearGradient>
<linearGradient id="paint4_linear" x1="398.546" y1="296.3" x2="398.546" y2="229.112" gradientUnits="userSpaceOnUse">
<stop stop-color="#FE9661"/>
<stop offset="1" stop-color="#FFB369"/>
</linearGradient>
<linearGradient id="paint5_linear" x1="237.245" y1="296.3" x2="237.245" y2="229.112" gradientUnits="userSpaceOnUse">
<stop stop-color="#FE9661"/>
<stop offset="1" stop-color="#FFB369"/>
</linearGradient>
<linearGradient id="paint6_linear" x1="16.7919" y1="222.393" x2="21.6129" y2="154.877" gradientUnits="userSpaceOnUse">
<stop stop-color="#FE9661"/>
<stop offset="1" stop-color="#FFB369"/>
</linearGradient>
<linearGradient id="paint7_linear" x1="62.4844" y1="52.4062" x2="65.1719" y2="52.4062" gradientUnits="userSpaceOnUse">
<stop stop-color="#FE9661"/>
<stop offset="1" stop-color="#FFB369"/>
</linearGradient>
<linearGradient id="paint8_linear" x1="99.6194" y1="53.2264" x2="105.681" y2="53.2264" gradientUnits="userSpaceOnUse">
<stop stop-color="#FE9661"/>
<stop offset="1" stop-color="#FFB369"/>
</linearGradient>
<linearGradient id="paint9_linear" x1="64.6174" y1="53.2264" x2="70.6793" y2="53.2264" gradientUnits="userSpaceOnUse">
<stop stop-color="#FE9661"/>
<stop offset="1" stop-color="#FFB369"/>
</linearGradient>
</defs>
</svg>
