<svg width="43" height="43" viewBox="0 0 43 43" fill="none" xmlns="http://www.w3.org/2000/svg">
<path d="M2.6875 34.2656H40.3125V36.2812C40.3125 37.3504 39.8878 38.3758 39.1318 39.1318C38.3758 39.8878 37.3504 40.3125 36.2812 40.3125H6.71875C5.6496 40.3125 4.62423 39.8878 3.86823 39.1318C3.11222 38.3758 2.6875 37.3504 2.6875 36.2812V34.2656Z" fill="url(#paint0_linear)"/>
<path d="M38.2969 20.8281V31.5781C38.3336 32.2522 38.1018 32.9134 37.6523 33.417C37.2028 33.9206 36.5722 34.2258 35.8983 34.2656H7.10172C6.42783 34.2258 5.79716 33.9206 5.34766 33.417C4.89816 32.9134 4.66641 32.2522 4.70312 31.5781V10.0781C4.66641 9.40406 4.89816 8.7429 5.34766 8.23925C5.79716 7.73561 6.42783 7.43049 7.10172 7.39062H25.5312L38.2969 20.8281Z" fill="url(#paint1_linear)"/>
<path d="M35.6094 20.9759V31.5781H7.39062V10.0781H25.1819L35.6094 20.9759Z" fill="url(#paint2_linear)"/>
<path d="M17.4688 34.2656V35.6094C17.4688 35.9658 17.6103 36.3075 17.8623 36.5596C18.1143 36.8116 18.4561 36.9531 18.8125 36.9531H24.1875C24.5439 36.9531 24.8857 36.8116 25.1377 36.5596C25.3897 36.3075 25.5312 35.9658 25.5312 35.6094V34.2656" fill="#4795EA"/>
<path d="M16.8641 14.1094H16.7297C14.9115 14.1094 13.4375 15.5833 13.4375 17.4016V18.8797C13.4375 20.6979 14.9115 22.1719 16.7297 22.1719H16.8641C18.6823 22.1719 20.1562 20.6979 20.1562 18.8797V17.4016C20.1562 15.5833 18.6823 14.1094 16.8641 14.1094Z" fill="url(#paint3_linear)"/>
<path d="M16.7969 22.1719C18.4006 22.1719 19.9387 22.809 21.0727 23.943C22.2067 25.077 22.8438 26.615 22.8438 28.2188V31.5781H10.75V28.2188C10.75 26.615 11.3871 25.077 12.5211 23.943C13.6551 22.809 15.1931 22.1719 16.7969 22.1719Z" fill="url(#paint4_linear)"/>
<path d="M35.6094 2.6875H26.875C26.5186 2.6875 26.1768 2.82907 25.9248 3.08108C25.6728 3.33308 25.5312 3.67487 25.5312 4.03125V19.4844C25.5312 19.8408 25.6728 20.1825 25.9248 20.4345C26.1768 20.6866 26.5186 20.8281 26.875 20.8281H38.9688C39.3251 20.8281 39.6669 20.6866 39.9189 20.4345C40.1709 20.1825 40.3125 19.8408 40.3125 19.4844V7.39062L35.6094 2.6875Z" fill="url(#paint5_linear)"/>
<path d="M32.25 8.0625H28.2188C28.0406 8.0625 27.8697 7.99171 27.7437 7.86571C27.6177 7.73971 27.5469 7.56882 27.5469 7.39062C27.5469 7.21243 27.6177 7.04154 27.7437 6.91554C27.8697 6.78954 28.0406 6.71875 28.2188 6.71875H32.25C32.4282 6.71875 32.5991 6.78954 32.7251 6.91554C32.8511 7.04154 32.9219 7.21243 32.9219 7.39062C32.9219 7.56882 32.8511 7.73971 32.7251 7.86571C32.5991 7.99171 32.4282 8.0625 32.25 8.0625Z" fill="#B4CDE1"/>
<path d="M37.625 11.4219H28.2188C28.0406 11.4219 27.8697 11.3511 27.7437 11.2251C27.6177 11.0991 27.5469 10.9282 27.5469 10.75C27.5469 10.5718 27.6177 10.4009 27.7437 10.2749C27.8697 10.1489 28.0406 10.0781 28.2188 10.0781H37.625C37.8032 10.0781 37.9741 10.1489 38.1001 10.2749C38.2261 10.4009 38.2969 10.5718 38.2969 10.75C38.2969 10.9282 38.2261 11.0991 38.1001 11.2251C37.9741 11.3511 37.8032 11.4219 37.625 11.4219Z" fill="#B4CDE1"/>
<path d="M37.625 14.7812H28.2188C28.0406 14.7812 27.8697 14.7105 27.7437 14.5845C27.6177 14.4585 27.5469 14.2876 27.5469 14.1094C27.5469 13.9312 27.6177 13.7603 27.7437 13.6343C27.8697 13.5083 28.0406 13.4375 28.2188 13.4375H37.625C37.8032 13.4375 37.9741 13.5083 38.1001 13.6343C38.2261 13.7603 38.2969 13.9312 38.2969 14.1094C38.2969 14.2876 38.2261 14.4585 38.1001 14.5845C37.9741 14.7105 37.8032 14.7812 37.625 14.7812Z" fill="#B4CDE1"/>
<path d="M37.625 18.1406H28.2188C28.0406 18.1406 27.8697 18.0698 27.7437 17.9438C27.6177 17.8178 27.5469 17.6469 27.5469 17.4688C27.5469 17.2906 27.6177 17.1197 27.7437 16.9937C27.8697 16.8677 28.0406 16.7969 28.2188 16.7969H37.625C37.8032 16.7969 37.9741 16.8677 38.1001 16.9937C38.2261 17.1197 38.2969 17.2906 38.2969 17.4688C38.2969 17.6469 38.2261 17.8178 38.1001 17.9438C37.9741 18.0698 37.8032 18.1406 37.625 18.1406Z" fill="#B4CDE1"/>
<path d="M35.6094 2.6875V6.04688C35.6094 6.40326 35.7509 6.74505 36.0029 6.99705C36.255 7.24905 36.5967 7.39062 36.9531 7.39062H40.3125L35.6094 2.6875Z" fill="#B4CDE1"/>
<defs>
<linearGradient id="paint0_linear" x1="21.5" y1="40.3125" x2="21.5" y2="34.2656" gradientUnits="userSpaceOnUse">
<stop stop-color="#54A5FF"/>
<stop offset="1" stop-color="#8AD3FE"/>
</linearGradient>
<linearGradient id="paint1_linear" x1="4.69932" y1="1378.02" x2="26.1993" y2="302.774" gradientUnits="userSpaceOnUse">
<stop stop-color="#54A5FF"/>
<stop offset="1" stop-color="#8AD3FE"/>
</linearGradient>
<linearGradient id="paint2_linear" x1="7.39062" y1="20.8281" x2="35.6094" y2="20.8281" gradientUnits="userSpaceOnUse">
<stop stop-color="#D3E6F5"/>
<stop offset="1" stop-color="#F0F7FC"/>
</linearGradient>
<linearGradient id="paint3_linear" x1="13.4375" y1="18.1406" x2="20.1562" y2="18.1406" gradientUnits="userSpaceOnUse">
<stop stop-color="#FE9661"/>
<stop offset="1" stop-color="#FFB369"/>
</linearGradient>
<linearGradient id="paint4_linear" x1="204.25" y1="398.422" x2="421.937" y2="398.422" gradientUnits="userSpaceOnUse">
<stop stop-color="#FE9661"/>
<stop offset="1" stop-color="#FFB369"/>
</linearGradient>
<linearGradient id="paint5_linear" x1="749.812" y1="2.6875" x2="749.812" y2="75.25" gradientUnits="userSpaceOnUse">
<stop stop-color="#D3E6F5"/>
<stop offset="1" stop-color="#F0F7FC"/>
</linearGradient>
</defs>
</svg>
