<svg width="43" height="43" viewBox="0 0 43 43" fill="none" xmlns="http://www.w3.org/2000/svg">
<path d="M40.9844 10.0781V32.9219C40.9844 33.8128 40.6304 34.6673 40.0004 35.2973C39.3704 35.9273 38.516 36.2812 37.625 36.2812H26.875C26.6968 36.2812 26.5259 36.2105 26.3999 36.0845C26.2739 35.9585 26.2031 35.7876 26.2031 35.6094V7.39062C26.2031 7.21243 26.2739 7.04154 26.3999 6.91554C26.5259 6.78954 26.6968 6.71875 26.875 6.71875H37.625C38.516 6.71875 39.3704 7.07268 40.0004 7.70269C40.6304 8.33269 40.9844 9.18716 40.9844 10.0781Z" fill="#D7E9F7"/>
<path d="M28.8906 10.0781H26.875C26.6968 10.0781 26.5259 10.1489 26.3999 10.2749C26.2739 10.4009 26.2031 10.5718 26.2031 10.75V16.7969C26.2031 16.9751 26.2739 17.146 26.3999 17.272C26.5259 17.398 26.6968 17.4688 26.875 17.4688H28.8906C29.4252 17.4688 29.9379 17.2564 30.3159 16.8784C30.6939 16.5004 30.9062 15.9877 30.9062 15.4531V12.0938C30.9062 11.5592 30.6939 11.0465 30.3159 10.6685C29.9379 10.2905 29.4252 10.0781 28.8906 10.0781Z" fill="url(#paint0_linear)"/>
<path d="M27.5469 5.375V34.3664C27.4528 36.1083 26.7118 37.7523 25.469 38.9764C24.2262 40.2005 22.5712 40.9166 20.8281 40.9844H8.53953C5.18016 40.9844 2.12984 37.9005 2.01562 34.3933V5.375C2.01562 4.48404 2.36956 3.62957 2.99956 2.99956C3.62957 2.36956 4.48404 2.01563 5.375 2.01562H24.1875C24.6287 2.01562 25.0655 2.10252 25.4731 2.27134C25.8807 2.44017 26.251 2.68762 26.5629 2.99956C26.8749 3.31151 27.1223 3.68184 27.2912 4.08942C27.46 4.497 27.5469 4.93384 27.5469 5.375Z" fill="#54A5FF"/>
<path d="M20.8281 5.375H8.73438C7.62118 5.375 6.71875 6.27743 6.71875 7.39062V12.7656C6.71875 13.8788 7.62118 14.7812 8.73438 14.7812H20.8281C21.9413 14.7812 22.8438 13.8788 22.8438 12.7656V7.39062C22.8438 6.27743 21.9413 5.375 20.8281 5.375Z" fill="url(#paint1_linear)"/>
<path d="M26.875 20.1562H2.6875C2.50931 20.1562 2.33841 20.0855 2.21241 19.9595C2.08641 19.8335 2.01563 19.6626 2.01562 19.4844V16.7969C2.01562 16.6187 2.08641 16.4478 2.21241 16.3218C2.33841 16.1958 2.50931 16.125 2.6875 16.125H26.875C27.0532 16.125 27.2241 16.1958 27.3501 16.3218C27.4761 16.4478 27.5469 16.6187 27.5469 16.7969V19.4844C27.5469 19.6626 27.4761 19.8335 27.3501 19.9595C27.2241 20.0855 27.0532 20.1562 26.875 20.1562ZM3.35938 18.8125H26.2031V17.4688H3.35938V18.8125Z" fill="black"/>
<path d="M8.39844 21.8494H7.05469C6.52011 21.8494 6.00743 22.0617 5.62943 22.4397C5.25142 22.8177 5.03906 23.3304 5.03906 23.865C5.03906 24.3996 5.25142 24.9122 5.62943 25.2903C6.00743 25.6683 6.52011 25.8806 7.05469 25.8806H8.39844C8.93301 25.8806 9.4457 25.6683 9.8237 25.2903C10.2017 24.9122 10.4141 24.3996 10.4141 23.865C10.4141 23.3304 10.2017 22.8177 9.8237 22.4397C9.4457 22.0617 8.93301 21.8494 8.39844 21.8494Z" fill="url(#paint2_linear)"/>
<path d="M15.4531 21.8494H14.1094C13.5748 21.8494 13.0621 22.0617 12.6841 22.4397C12.3061 22.8177 12.0938 23.3304 12.0938 23.865C12.0938 24.3996 12.3061 24.9122 12.6841 25.2903C13.0621 25.6683 13.5748 25.8806 14.1094 25.8806H15.4531C15.9877 25.8806 16.5004 25.6683 16.8784 25.2903C17.2564 24.9122 17.4688 24.3996 17.4688 23.865C17.4688 23.3304 17.2564 22.8177 16.8784 22.4397C16.5004 22.0617 15.9877 21.8494 15.4531 21.8494Z" fill="url(#paint3_linear)"/>
<path d="M21.1641 25.8806H22.5078C23.0424 25.8806 23.5551 25.6683 23.9331 25.2903C24.3111 24.9122 24.5234 24.3996 24.5234 23.865C24.5234 23.3304 24.3111 22.8177 23.9331 22.4397C23.5551 22.0617 23.0424 21.8494 22.5078 21.8494H21.1641C20.6295 21.8494 20.1168 22.0617 19.7388 22.4397C19.3608 22.8177 19.1484 23.3304 19.1484 23.865C19.1484 24.3996 19.3608 24.9122 19.7388 25.2903C20.1168 25.6683 20.6295 25.8806 21.1641 25.8806Z" fill="url(#paint4_linear)"/>
<path d="M8.39844 27.2244H7.05469C6.52011 27.2244 6.00743 27.4367 5.62943 27.8147C5.25142 28.1927 5.03906 28.7054 5.03906 29.24C5.03906 29.7746 5.25142 30.2872 5.62943 30.6653C6.00743 31.0433 6.52011 31.2556 7.05469 31.2556H8.39844C8.93301 31.2556 9.4457 31.0433 9.8237 30.6653C10.2017 30.2872 10.4141 29.7746 10.4141 29.24C10.4141 28.7054 10.2017 28.1927 9.8237 27.8147C9.4457 27.4367 8.93301 27.2244 8.39844 27.2244Z" fill="url(#paint5_linear)"/>
<path d="M15.4531 27.2244H14.1094C13.5748 27.2244 13.0621 27.4367 12.6841 27.8147C12.3061 28.1927 12.0938 28.7054 12.0938 29.24C12.0938 29.7746 12.3061 30.2872 12.6841 30.6653C13.0621 31.0433 13.5748 31.2556 14.1094 31.2556H15.4531C15.9877 31.2556 16.5004 31.0433 16.8784 30.6653C17.2564 30.2872 17.4688 29.7746 17.4688 29.24C17.4688 28.7054 17.2564 28.1927 16.8784 27.8147C16.5004 27.4367 15.9877 27.2244 15.4531 27.2244Z" fill="url(#paint6_linear)"/>
<path d="M22.5078 27.2244H21.1641C20.6295 27.2244 20.1168 27.4367 19.7388 27.8147C19.3608 28.1927 19.1484 28.7054 19.1484 29.24C19.1484 29.7746 19.3608 30.2872 19.7388 30.6653C20.1168 31.0433 20.6295 31.2556 21.1641 31.2556H22.5078C23.0424 31.2556 23.5551 31.0433 23.9331 30.6653C24.3111 30.2872 24.5234 29.7746 24.5234 29.24C24.5234 28.7054 24.3111 28.1927 23.9331 27.8147C23.5551 27.4367 23.0424 27.2244 22.5078 27.2244Z" fill="url(#paint7_linear)"/>
<path d="M8.39844 32.5994H7.05469C6.52011 32.5994 6.00743 32.8117 5.62943 33.1897C5.25142 33.5677 5.03906 34.0804 5.03906 34.615C5.03906 35.1496 5.25142 35.6622 5.62943 36.0403C6.00743 36.4183 6.52011 36.6306 7.05469 36.6306H8.39844C8.93301 36.6306 9.4457 36.4183 9.8237 36.0403C10.2017 35.6622 10.4141 35.1496 10.4141 34.615C10.4141 34.0804 10.2017 33.5677 9.8237 33.1897C9.4457 32.8117 8.93301 32.5994 8.39844 32.5994Z" fill="url(#paint8_linear)"/>
<path d="M15.4531 32.5994H14.1094C13.5748 32.5994 13.0621 32.8117 12.6841 33.1897C12.3061 33.5677 12.0938 34.0804 12.0938 34.615C12.0938 35.1496 12.3061 35.6622 12.6841 36.0403C13.0621 36.4183 13.5748 36.6306 14.1094 36.6306H15.4531C15.9877 36.6306 16.5004 36.4183 16.8784 36.0403C17.2564 35.6622 17.4688 35.1496 17.4688 34.615C17.4688 34.0804 17.2564 33.5677 16.8784 33.1897C16.5004 32.8117 15.9877 32.5994 15.4531 32.5994Z" fill="url(#paint9_linear)"/>
<path d="M22.5078 32.5994H21.1641C20.6295 32.5994 20.1168 32.8117 19.7388 33.1897C19.3608 33.5677 19.1484 34.0804 19.1484 34.615C19.1484 35.1496 19.3608 35.6622 19.7388 36.0403C20.1168 36.4183 20.6295 36.6306 21.1641 36.6306H22.5078C23.0424 36.6306 23.5551 36.4183 23.9331 36.0403C24.3111 35.6622 24.5234 35.1496 24.5234 34.615C24.5234 34.0804 24.3111 33.5677 23.9331 33.1897C23.5551 32.8117 23.0424 32.5994 22.5078 32.5994Z" fill="url(#paint10_linear)"/>
<path d="M37.625 12.0938C37.4468 12.0938 37.2759 12.023 37.1499 11.897C37.0239 11.771 36.9531 11.6001 36.9531 11.4219V10.0781C36.9531 9.89993 37.0239 9.72904 37.1499 9.60304C37.2759 9.47704 37.4468 9.40625 37.625 9.40625C37.8032 9.40625 37.9741 9.47704 38.1001 9.60304C38.2261 9.72904 38.2969 9.89993 38.2969 10.0781V11.4219C38.2969 11.6001 38.2261 11.771 38.1001 11.897C37.9741 12.023 37.8032 12.0938 37.625 12.0938Z" fill="#4795EA"/>
<path d="M37.625 16.125C37.4468 16.125 37.2759 16.0542 37.1499 15.9282C37.0239 15.8022 36.9531 15.6313 36.9531 15.4531V14.1094C36.9531 13.9312 37.0239 13.7603 37.1499 13.6343C37.2759 13.5083 37.4468 13.4375 37.625 13.4375C37.8032 13.4375 37.9741 13.5083 38.1001 13.6343C38.2261 13.7603 38.2969 13.9312 38.2969 14.1094V15.4531C38.2969 15.6313 38.2261 15.8022 38.1001 15.9282C37.9741 16.0542 37.8032 16.125 37.625 16.125Z" fill="#54A5FF"/>
<path d="M37.625 20.1562C37.4468 20.1562 37.2759 20.0855 37.1499 19.9595C37.0239 19.8335 36.9531 19.6626 36.9531 19.4844V18.1406C36.9531 17.9624 37.0239 17.7915 37.1499 17.6655C37.2759 17.5395 37.4468 17.4688 37.625 17.4688C37.8032 17.4688 37.9741 17.5395 38.1001 17.6655C38.2261 17.7915 38.2969 17.9624 38.2969 18.1406V19.4844C38.2969 19.6626 38.2261 19.8335 38.1001 19.9595C37.9741 20.0855 37.8032 20.1562 37.625 20.1562Z" fill="#8AD3FE"/>
<path d="M35.6094 6.71875H34.2656V36.2812H35.6094V6.71875Z" fill="#B4CDE1"/>
<path d="M27.5469 16.125H2.01562V20.1562H27.5469V16.125Z" fill="url(#paint11_linear)"/>
<defs>
<linearGradient id="paint0_linear" x1="28.5547" y1="17.4688" x2="28.5547" y2="10.0781" gradientUnits="userSpaceOnUse">
<stop stop-color="#FE9661"/>
<stop offset="1" stop-color="#FFB369"/>
</linearGradient>
<linearGradient id="paint1_linear" x1="14.7812" y1="14.7812" x2="14.7812" y2="5.375" gradientUnits="userSpaceOnUse">
<stop stop-color="#D3E6F5"/>
<stop offset="1" stop-color="#F0F7FC"/>
</linearGradient>
<linearGradient id="paint2_linear" x1="66.8516" y1="177.133" x2="66.8516" y2="152.946" gradientUnits="userSpaceOnUse">
<stop stop-color="#D3E6F5"/>
<stop offset="1" stop-color="#F0F7FC"/>
</linearGradient>
<linearGradient id="paint3_linear" x1="12.0937" y1="177.133" x2="15.1534" y2="152.656" gradientUnits="userSpaceOnUse">
<stop stop-color="#D3E6F5"/>
<stop offset="1" stop-color="#F0F7FC"/>
</linearGradient>
<linearGradient id="paint4_linear" x1="193.836" y1="177.133" x2="193.836" y2="152.946" gradientUnits="userSpaceOnUse">
<stop stop-color="#D3E6F5"/>
<stop offset="1" stop-color="#F0F7FC"/>
</linearGradient>
<linearGradient id="paint5_linear" x1="66.8516" y1="214.758" x2="66.8516" y2="190.571" gradientUnits="userSpaceOnUse">
<stop stop-color="#D3E6F5"/>
<stop offset="1" stop-color="#F0F7FC"/>
</linearGradient>
<linearGradient id="paint6_linear" x1="12.0937" y1="214.758" x2="15.1534" y2="190.281" gradientUnits="userSpaceOnUse">
<stop stop-color="#D3E6F5"/>
<stop offset="1" stop-color="#F0F7FC"/>
</linearGradient>
<linearGradient id="paint7_linear" x1="193.836" y1="214.758" x2="193.836" y2="190.571" gradientUnits="userSpaceOnUse">
<stop stop-color="#D3E6F5"/>
<stop offset="1" stop-color="#F0F7FC"/>
</linearGradient>
<linearGradient id="paint8_linear" x1="66.8516" y1="252.383" x2="66.8516" y2="228.196" gradientUnits="userSpaceOnUse">
<stop stop-color="#D3E6F5"/>
<stop offset="1" stop-color="#F0F7FC"/>
</linearGradient>
<linearGradient id="paint9_linear" x1="12.0937" y1="252.383" x2="15.1534" y2="227.906" gradientUnits="userSpaceOnUse">
<stop stop-color="#D3E6F5"/>
<stop offset="1" stop-color="#F0F7FC"/>
</linearGradient>
<linearGradient id="paint10_linear" x1="193.836" y1="252.383" x2="193.836" y2="228.196" gradientUnits="userSpaceOnUse">
<stop stop-color="#D3E6F5"/>
<stop offset="1" stop-color="#F0F7FC"/>
</linearGradient>
<linearGradient id="paint11_linear" x1="282.859" y1="169.312" x2="310.185" y2="-3.74797" gradientUnits="userSpaceOnUse">
<stop stop-color="#D3E6F5"/>
<stop offset="1" stop-color="#F0F7FC"/>
</linearGradient>
</defs>
</svg>
